<svg width="24" height="24" viewBox="0 0 24 24" fill="none" xmlns="http://www.w3.org/2000/svg">
<path fill-rule="evenodd" clip-rule="evenodd" d="M3 7.5C3 7.22386 3.22386 7 3.5 7H18.5C18.2239 7 18 7.22386 18 7.5C18 7.77614 18.2239 8 18.5 8H3.5C3.22386 8 3 7.77614 3 7.5ZM18.5 8C18.7761 8 19 7.77614 19 7.5C19 7.22386 18.7761 7 18.5 7H20.5C20.7761 7 21 7.22386 21 7.5C21 7.77614 20.7761 8 20.5 8H18.5Z" fill="#262626"/>
<path d="M19.5 7.5C19.5 8.05228 19.0523 8.5 18.5 8.5C17.9477 8.5 17.5 8.05228 17.5 7.5C17.5 6.94772 17.9477 6.5 18.5 6.5C19.0523 6.5 19.5 6.94772 19.5 7.5Z" stroke="#262626"/>
<path fill-rule="evenodd" clip-rule="evenodd" d="M3 12.5C3 12.2239 3.22386 12 3.5 12H6.5C6.22386 12 6 12.2239 6 12.5C6 12.7761 6.22386 13 6.5 13H3.5C3.22386 13 3 12.7761 3 12.5ZM6.5 13C6.77614 13 7 12.7761 7 12.5C7 12.2239 6.77614 12 6.5 12H20.5C20.7761 12 21 12.2239 21 12.5C21 12.7761 20.7761 13 20.5 13H6.5Z" fill="#262626"/>
<path d="M7.5 12.5C7.5 13.0523 7.05228 13.5 6.5 13.5C5.94772 13.5 5.5 13.0523 5.5 12.5C5.5 11.9477 5.94772 11.5 6.5 11.5C7.05228 11.5 7.5 11.9477 7.5 12.5Z" stroke="#262626"/>
<path fill-rule="evenodd" clip-rule="evenodd" d="M3 17.5C3 17.2239 3.22386 17 3.5 17H12.5C12.2239 17 12 17.2239 12 17.5C12 17.7761 12.2239 18 12.5 18H3.5C3.22386 18 3 17.7761 3 17.5ZM12.5 18C12.7761 18 13 17.7761 13 17.5C13 17.2239 12.7761 17 12.5 17H20.5C20.7761 17 21 17.2239 21 17.5C21 17.7761 20.7761 18 20.5 18H12.5Z" fill="#262626"/>
<path d="M13.5 17.5C13.5 18.0523 13.0523 18.5 12.5 18.5C11.9477 18.5 11.5 18.0523 11.5 17.5C11.5 16.9477 11.9477 16.5 12.5 16.5C13.0523 16.5 13.5 16.9477 13.5 17.5Z" stroke="#262626"/>
</svg>
