<svg id="Layer_1" data-name="Layer 1" xmlns="http://www.w3.org/2000/svg" viewBox="0 0 862.97 222.77"><path d="M123.67,65.36C118,46,109.59,24.89,81.78,24.89c-19.5,0-29.75,14-29.75,30.36,0,18,11.84,28.08,37.71,41.18,33.47,16.84,52.19,31.81,52.19,61.09,0,34-28.67,59.21-70.1,59.21-18.78,0-35.36-5.1-48.83-9.51-2-7.43-6.58-34.85-8.68-49.68l10.86-2.6c6,19.32,21.54,49.71,51.57,49.71,19.46,0,31.29-12.66,31.29-32s-11.33-29.28-36.95-43.1c-31.3-16.9-50.76-31.69-50.76-61.74C20.33,38,44.09,13,87.21,13c19.33,0,35.25,4.5,41.74,5.5,1.2,11,3,25.34,5.39,44.45Z"/><path d="M279.76,184.19c-18.62,25.95-41.57,31.64-53.12,31.64-38.94,0-61.53-29.81-61.53-65.09,0-20.79,9-40.86,21.45-53.47C199.75,83.56,216.44,76,232.63,76c28.24,0,48.43,23.67,48.24,48.06-.11,5.42-.62,9.68-4.64,10.68-5.8,1.4-46.74,3.71-78.15,4.91.47,34.74,20.58,51,42.08,51,11.91,0,23.5-4.51,34.41-14.13ZM226.21,87.94c-12.63,0-24,13.68-26.63,37.59,13.88-.2,27.17-.39,41.55-.9,4.62-.2,6.42-1.11,6.42-6C247.85,103.31,239.69,87.94,226.21,87.94Z"/><path d="M374.42,212.23H298.79v-9.57c16.95-1.8,18.55-3.3,18.55-21.83V116.29c0-16.68-1.2-18-16.46-20.66V87a239.88,239.88,0,0,0,49.91-11.71v32.61C363.24,88.94,374.67,76,387.92,76c11.1,0,18.76,7.29,18.76,16.74,0,12-8.5,19.74-13.51,22.35a7.43,7.43,0,0,1-8.78-1.18c-4.89-4.31-8.68-8.48-13.89-8.48s-13.89,5.79-19.71,18.56v56.79c0,18.63,1.89,19.74,23.63,21.93Z"/><path d="M531.75,184.19c-18.61,25.95-41.56,31.64-53.12,31.64-38.94,0-61.53-29.81-61.53-65.09,0-20.79,9-40.86,21.45-53.47C451.74,83.56,468.43,76,484.62,76c28.25,0,48.44,23.67,48.24,48.06-.1,5.42-.61,9.68-4.63,10.68-5.81,1.4-46.74,3.71-78.15,4.91.46,34.74,20.58,51,42.07,51,11.91,0,23.51-4.51,34.41-14.13ZM478.2,87.94c-12.63,0-24,13.68-26.62,37.59,13.87-.2,27.16-.39,41.54-.9,4.63-.2,6.42-1.11,6.42-6C499.85,103.31,491.69,87.94,478.2,87.94Z"/><path d="M636.88,212.23v-9.57c14.28-1.8,15.5-3.32,15.5-23.91V128.08c0-21.2-9.45-30.42-23.21-30.42-9.37,0-17.76,4.47-26.28,11.31v71.76c0,19.14,1.41,20.13,15.6,21.93v9.57H550.57v-9.57c17.07-2.49,18.87-3.11,18.87-22.71V117.76c0-18.53-2.29-19.43-16.55-22.13v-9c16.46-2.2,35.06-6.1,50.39-11.61-.19,5.15-.39,15.33-.39,22.34,6-4.2,12.41-8.7,19.62-13.22,8.79-5.4,15.23-8.22,23.93-8.22,24.19,0,39.39,17.7,39.39,47.78v56.8c0,19.23,1.8,20.13,17.25,22.13v9.57Z"/><path d="M816.71,215.83c-6.84,0-13.44-2.6-17-6.09a28.55,28.55,0,0,1-7.59-11.94c-11.61,7.71-26.31,18-33.27,18-24.23,0-39.33-19.26-39.33-38.07,0-15.48,7.51-23.52,23.62-29.61,17.91-6.5,41.19-13.91,48-19.7V117.77c0-17.59-7.49-27.55-21.33-27.55A15.71,15.71,0,0,0,757,96.53c-3.49,4.59-5,10.8-7.51,19.7-1.89,6.94-6,9-11.43,9-7.07,0-16.13-6.78-16.13-14.76,0-5,3.71-8.77,10.29-13.36,11.82-8.06,29.42-17.6,46.32-21.2,10.95,0,20.84,2.7,28.91,8.49,12.06,9,16.08,20.76,16.08,36.17v54c0,14.19,4.9,18,9.91,18a23,23,0,0,0,9.83-2.72l3.19,9.57Zm-25.6-75.71c-5.82,3.11-14.37,7.26-20.69,10.46-10,4.9-16,10.41-16,20.92,0,16.49,11.81,22.91,19.46,22.91a24.88,24.88,0,0,0,17.19-6.9Z"/></svg>